HIERARCHY
ROOT Hips
{
 OFFSET 0.000000 0.000000 0.000000
 CHANNELS 6 Xposition Yposition Zposition Yrotation Xrotation Zrotation
 JOINT Chest
 {
  OFFSET 0.000000 9.581000 -0.001100
  CHANNELS 3 Yrotation Xrotation Zrotation
  JOINT Chest2
  {
   OFFSET 0.000000 9.561100 0.002200
   CHANNELS 3 Yrotation Xrotation Zrotation
   JOINT Chest3
   {
    OFFSET 0.000000 9.521100 0.000000
    CHANNELS 3 Yrotation Xrotation Zrotation
    JOINT Chest4
    {
     OFFSET 0.000000 9.511400 0.000000
     CHANNELS 3 Yrotation Xrotation Zrotation
     JOINT Neck
     {
      OFFSET 0.000000 14.375100 0.000000
      CHANNELS 3 Yrotation Xrotation Zrotation
      JOINT Head
      {
       OFFSET 0.000000 8.901200 0.004600
       CHANNELS 3 Yrotation Xrotation Zrotation
       End Site
       {
        OFFSET 0.000000 16.962200 0.002400
       }
      }
     }
     JOINT RightCollar
     {
      OFFSET -2.920100 9.518800 0.000000
      CHANNELS 3 Yrotation Xrotation Zrotation
      JOINT RightShoulder
      {
       OFFSET -13.664500 0.000000 0.000000
       CHANNELS 3 Yrotation Xrotation Zrotation
       JOINT RightElbow
       {
        OFFSET 0.000000 -29.999200 0.000000
        CHANNELS 3 Yrotation Xrotation Zrotation
        JOINT RightWrist
        {
         OFFSET 0.000000 -24.253600 0.000000
         CHANNELS 3 Yrotation Xrotation Zrotation
         End Site
         {
          OFFSET 0.000000 -17.918900 0.000000
         }
        }
       }
      }
     }
     JOINT LeftCollar
     {
      OFFSET 2.920100 9.518800 0.000000
      CHANNELS 3 Yrotation Xrotation Zrotation
      JOINT LeftShoulder
      {
       OFFSET 13.664500 0.000000 0.000000
       CHANNELS 3 Yrotation Xrotation Zrotation
       JOINT LeftElbow
       {
        OFFSET 0.000000 -29.999200 0.000000
        CHANNELS 3 Yrotation Xrotation Zrotation
        JOINT LeftWrist
        {
         OFFSET 0.000000 -24.253600 0.000000
         CHANNELS 3 Yrotation Xrotation Zrotation
         End Site
         {
          OFFSET 0.000000 -17.918900 0.000000
         }
        }
       }
      }
     }
    }
   }
  }
 }
 JOINT RightHip
 {
  OFFSET -7.797300 0.005300 0.000500
  CHANNELS 3 Yrotation Xrotation Zrotation
  JOINT RightKnee
  {
   OFFSET 0.000000 -40.663400 -0.000500
   CHANNELS 3 Yrotation Xrotation Zrotation
   JOINT RightAnkle
   {
    OFFSET 0.000000 -39.523700 -0.000900
    CHANNELS 3 Yrotation Xrotation Zrotation
    JOINT RightToe
    {
     OFFSET 0.000000 -6.418000 14.485300
     CHANNELS 3 Yrotation Xrotation Zrotation
     End Site
     {
      OFFSET 0.000000 -1.465200 6.326400
     }
    }
   }
  }
 }
 JOINT LeftHip
 {
  OFFSET 7.797300 0.005300 0.000500
  CHANNELS 3 Yrotation Xrotation Zrotation
  JOINT LeftKnee
  {
   OFFSET 0.000000 -40.663400 -0.000500
   CHANNELS 3 Yrotation Xrotation Zrotation
   JOINT LeftAnkle
   {
    OFFSET 0.000000 -39.523700 -0.000900
    CHANNELS 3 Yrotation Xrotation Zrotation
    JOINT LeftToe
    {
     OFFSET 0.000000 -6.418000 14.485300
     CHANNELS 3 Yrotation Xrotation Zrotation
     End Site
     {
      OFFSET 0.000000 -1.465200 6.326400
     }
    }
   }
  }
 }
}
MOTION
Frames: 7
Frame Time: 0.008333
0.000000 86.422400 0.000000 0.000000 -5.767877 0.000000 0.000000 11.653817 0.000000 0.000000 -5.885947 0.000000 0.000000 -0.000000 0.000000 0.000000 -0.000000 0.000000 0.000000 12.528835 0.000000 0.000000 0.711642 0.000000 0.000000 -0.000000 0.000000 0.000000 0.000000 -90.000000 0.000000 -2.309062 0.000000 0.000000 2.309062 0.000000 0.000000 -0.000000 0.000000 0.000000 -0.000000 90.000000 0.000000 -2.309062 0.000000 0.000000 2.309062 0.000000 0.000000 8.520406 0.000000 0.000000 1.905762 0.000000 -0.000000 -4.658285 0.000000 0.000000 -0.000000 0.000000 0.000000 8.520406 0.000000 0.000000 1.905762 0.000000 -0.000000 -4.658285 0.000000 0.000000 -0.000000 0.000000
-14.667235 126.907798 23.745144 -168.964526 -48.127379 -2.977440 -3.606470 27.183257 0.293207 -0.623512 4.737941 0.173343 -0.980417 7.518781 0.252400 -2.902012 22.112840 0.372835 -0.914305 15.661492 -1.477711 -0.641514 -9.376397 -1.340175 1.490669 5.550063 0.766012 -1.761169 -8.109451 -9.328573 -107.138926 -59.499255 154.220602 2.723755 -15.116003 -17.692643 -9.529602 0.762313 -2.447101 -5.856945 -11.636853 11.563650 84.173857 -60.576765 -126.484105 -7.655623 -28.018057 18.046796 -4.793749 -24.128608 -4.279895 -6.347473 78.452613 -5.431134 10.722413 -14.097625 1.711337 0.000620 -0.002753 0.000275 6.167462 4.890441 1.947404 128.698751 65.170949 148.109633 6.152039 12.747869 1.487517 0.004194 -0.001565 0.001858
-14.667146 126.907239 23.745497 -168.967341 -48.121851 -2.976796 -3.603061 27.183789 0.294191 -0.624491 4.742359 0.176817 -0.976405 7.517744 0.250403 -2.902789 22.118793 0.377416 -0.910030 15.675933 -1.475866 -0.628566 -9.338278 -1.339289 1.492449 5.526657 0.778797 -1.608655 -8.101262 -9.370312 -106.878116 -59.563106 154.078064 2.734382 -14.939076 -17.471143 -9.531993 0.751084 -2.438818 -5.839757 -11.625128 11.556015 84.147883 -60.576302 -126.462613 -7.637214 -27.967941 18.044509 -4.790394 -24.137284 -4.279002 -6.367233 78.454799 -5.450915 10.721769 -14.089299 1.715863 0.000802 -0.002420 0.000355 6.169691 4.884935 1.948870 128.713697 65.171609 148.126772 6.158397 12.745608 1.478691 0.005698 -0.001194 0.002525
-14.666045 126.906622 23.745877 -168.966376 -48.115729 -2.985092 -3.599425 27.180093 0.302407 -0.615912 4.750916 0.175082 -0.981993 7.510926 0.253849 -2.896184 22.128657 0.379344 -0.914964 15.698907 -1.463881 -0.632417 -9.255922 -1.318046 1.488144 5.501618 0.798689 -1.456606 -8.097829 -9.411586 -106.581955 -59.610541 153.912166 2.745497 -14.742490 -17.235161 -9.524171 0.743270 -2.432509 -5.843497 -11.627065 11.551860 84.097215 -60.577177 -126.412406 -7.619057 -27.930961 18.035510 -4.797627 -24.144662 -4.270092 -6.389649 78.455811 -5.471464 10.711420 -14.083348 1.715835 0.000053 -0.002518 0.000024 6.174377 4.879839 1.958082 128.711736 65.169749 148.128059 6.159248 12.727206 1.499338 0.005976 -0.004606 0.002647
-14.666393 126.907058 23.745629 -168.969662 -48.119137 -2.982466 -3.591176 27.185330 0.305037 -0.616559 4.749001 0.174612 -0.982994 7.512709 0.255113 -2.879564 22.125436 0.383849 -0.937176 15.743106 -1.445895 -0.651588 -9.207503 -1.297406 1.493562 5.475039 0.837233 -1.323014 -8.084740 -9.463499 -106.258962 -59.645613 153.727748 2.746040 -14.528260 -16.973871 -9.537163 0.743681 -2.430947 -5.834853 -11.626743 11.549084 83.916576 -60.577206 -126.210853 -7.614063 -27.946456 17.982672 -4.796433 -24.141570 -4.270317 -6.401557 78.457134 -5.483101 10.700593 -14.083043 1.716725 -0.000098 -0.002338 -0.000043 6.180150 4.886747 1.959319 128.720212 65.174546 148.134593 6.203996 12.747384 1.408956 -0.000843 0.006149 -0.000374
-14.666652 126.907259 23.745772 -168.973620 -48.121342 -2.979363 -3.583266 27.180797 0.306578 -0.619651 4.755239 0.174904 -0.976857 7.510447 0.254736 -2.882976 22.115869 0.387231 -0.956206 15.786335 -1.431010 -0.649526 -9.200765 -1.299210 1.494180 5.482637 0.842102 -1.171413 -8.097586 -9.481865 -105.919185 -59.673294 153.526061 2.733185 -14.304208 -16.674651 -9.536173 0.749741 -2.434464 -5.822807 -11.625543 11.545924 83.812738 -60.570206 -126.111748 -7.607392 -27.935544 17.958537 -4.795537 -24.139926 -4.268893 -6.420286 78.459546 -5.501227 10.685308 -14.084181 1.716833 -0.000815 -0.001923 -0.000361 6.187908 4.890579 1.963442 128.711681 65.178123 148.127067 6.216483 12.755380 1.385359 -0.003380 0.009069 -0.001498
-14.666527 126.907209 23.746303 -168.977225 -48.122205 -2.978277 -3.582756 27.176206 0.307520 -0.616680 4.753133 0.175077 -0.979678 7.493138 0.255378 -2.881670 22.123320 0.386365 -0.984045 15.832096 -1.416057 -0.641367 -9.190992 -1.304464 1.513198 5.480004 0.865289 -1.029265 -8.098368 -9.515905 -105.570038 -59.696780 153.309942 2.712089 -14.074695 -16.332939 -9.532724 0.757476 -2.443068 -5.812284 -11.620969 11.545774 83.704123 -60.557756 -126.009504 -7.624343 -27.952466 17.938228 -4.799870 -24.140057 -4.274868 -6.409148 78.463235 -5.488988 10.711714 -14.084539 1.711801 0.001452 -0.000746 0.000643 6.194501 4.895266 1.970018 128.695699 65.180289 148.108286 6.198700 12.725961 1.464099 -0.001746 0.000761 -0.000773
